<!-- assets/img/hero-image.svg -->
<svg viewBox="0 0 1200 300" xmlns="http://www.w3.org/2000/svg" fill="none">
  <defs>
    <linearGradient id="grad1" x1="0%" y1="0%" x2="100%" y2="0%">
      <stop offset="0%" style="stop-color:#818cf8;stop-opacity:1" />
      <stop offset="100%" style="stop-color:#a855f7;stop-opacity:1" />
    </linearGradient>
  </defs>
  <path d="M0 150 Q 50 100, 100 150 T 200 150 T 300 150 T 400 150 T 500 150 T 600 150 T 700 150 T 800 150 T 900 150 T 1000 150 T 1100 150 T 1200 150" stroke="url(#grad1)" stroke-width="3" stroke-linecap="round">
    <animate attributeName="d" values="M0 150 Q 50 100, 100 150 T 200 150 T 300 150 T 400 150 T 500 150 T 600 150 T 700 150 T 800 150 T 900 150 T 1000 150 T 1100 150 T 1200 150; M0 150 Q 50 200, 100 150 T 200 150 T 300 150 T 400 150 T 500 150 T 600 150 T 700 150 T 800 150 T 900 150 T 1000 150 T 1100 150 T 1200 150; M0 150 Q 50 100, 100 150 T 200 150 T 300 150 T 400 150 T 500 150 T 600 150 T 700 150 T 800 150 T 900 150 T 1000 150 T 1100 150 T 1200 150" dur="4s" repeatCount="indefinite"/>
  </path>
  <path d="M0 150 Q 50 200, 100 150 T 200 150 T 300 150 T 400 150 T 500 150 T 600 150 T 700 150 T 800 150 T 900 150 T 1000 150 T 1100 150 T 1200 150" stroke="url(#grad1)" stroke-width="2" stroke-opacity="0.5" stroke-linecap="round">
    <animate attributeName="d" values="M0 150 Q 50 200, 100 150 T 200 150 T 300 150 T 400 150 T 500 150 T 600 150 T 700 150 T 800 150 T 900 150 T 1000 150 T 1100 150 T 1200 150; M0 150 Q 50 100, 100 150 T 200 150 T 300 150 T 400 150 T 500 150 T 600 150 T 700 150 T 800 150 T 900 150 T 1000 150 T 1100 150 T 1200 150; M0 150 Q 50 200, 100 150 T 200 150 T 300 150 T 400 150 T 500 150 T 600 150 T 700 150 T 800 150 T 900 150 T 1000 150 T 1100 150 T 1200 150" dur="5s" repeatCount="indefinite"/>
  </path>
</svg>
